<svg width="656" height="212" viewBox="0 0 656 212" fill="none" xmlns="http://www.w3.org/2000/svg">
<g opacity="0.1">
<path d="M282 7.40933C231.447 21.6676 203.71 43.055 179.105 87.1665C138.394 158.903 130.789 164.696 74.8678 162.913C39.973 161.577 33.2625 162.913 22.0783 170.934C9.9993 179.845 -2.9744 199.45 0.604548 203.015C1.49929 204.352 9.55193 197.222 18.4993 188.311L34.1572 171.379L62.3415 174.944C104.841 180.736 118.263 179.4 131.684 169.597C145.105 159.794 164.342 134.843 181.789 105.435C197 79.5918 234.578 42.1638 255.605 31.0246C284.236 16.7663 338.368 7.40933 358.947 13.2018C400.552 24.341 413.526 35.4803 455.579 93.4045C473.473 118.802 492.263 140.189 500.763 144.645C510.605 149.992 529.842 153.111 560.263 154.893C600.974 157.121 606.789 158.458 622 170.043C630.947 176.726 640.342 187.42 642.579 193.212C647.5 205.243 656 207.471 656 196.777C656 186.974 630.053 162.913 609.026 153.111C595.605 146.873 585.763 145.982 556.237 148.21C520 150.883 519.552 150.883 502.552 137.07C493.158 129.05 475.71 108.108 464.079 90.731C409.5 10.0827 356.71 -13.9781 282 7.40933Z" fill="#E5F1A4"/>
<path d="M275.662 47.9944C237.644 67.0543 226.462 78.5788 200.072 123.347C171.893 171.218 155.344 179.64 80.2013 184.959C44.419 187.619 32.7897 189.835 26.5278 196.041C19.3714 204.019 19.3714 204.019 30.1061 200.916C36.368 199.587 63.652 196.041 90.4887 194.268C163.842 188.505 183.075 178.754 204.992 136.202C223.778 98.9684 245.695 76.8058 281.03 59.519C356.62 22.7291 381.667 32.9239 464.861 135.315C500.196 178.311 526.138 191.608 568.183 187.176C603.965 183.63 619.172 186.732 622.751 199.143C624.987 205.792 627.224 207.122 630.354 204.019C633.933 200.473 633.038 195.597 627.671 188.062C619.62 175.208 614.252 174.321 562.368 176.094C531.506 177.424 527.48 176.094 510.484 164.126C500.644 157.034 475.149 130.439 454.574 105.617C433.999 80.3518 409.399 53.7567 400.006 46.2214C383.904 33.8104 379.431 32.4806 346.332 31.5941C311.445 30.7076 307.866 31.1509 275.662 47.9944Z" fill="#E5F1A4"/>
<path d="M324.722 53.6233C287.586 63.5542 268.347 79.8049 235.686 128.557C219.131 152.933 202.129 175.503 197.208 178.663C180.653 189.948 145.755 200.782 115.778 203.942C88.0379 207.101 86.6956 207.553 101.013 210.713C110.856 212.518 130.095 211.164 152.466 206.65C194.971 197.622 211.973 184.08 240.607 135.779C264.32 95.6041 286.691 75.7422 318.458 66.2627C359.173 54.5261 371.701 58.5888 403.02 94.7013C417.785 111.403 446.867 143.002 467.896 164.218L506.373 203.49L536.35 206.65C552.905 208.456 569.907 208.456 573.934 206.199C579.303 203.942 572.591 201.685 552.905 199.879C536.798 198.073 519.796 194.914 514.874 192.205C503.689 185.885 440.603 119.529 414.653 86.1245C403.915 72.5824 391.387 59.0402 387.36 56.3317C373.49 47.755 349.777 46.4008 324.722 53.6233Z" fill="#E5F1A4"/>
<path d="M313.191 100.208C301.159 110.087 290.018 118.171 288.235 118.171C286.898 118.171 275.757 131.194 264.17 147.361C244.115 174.754 217.376 197.657 197.768 204.393C191.083 206.19 192.866 207.088 204.007 207.537C219.605 207.986 223.615 204.842 284.224 138.828C310.072 110.537 335.028 94.3698 351.517 94.8189C374.246 95.268 403.213 119.967 429.061 160.833C456.245 202.597 454.463 201.25 477.637 205.291C500.811 209.782 498.137 202.597 472.289 191.37C453.572 183.736 447.778 177.898 435.745 156.342C411.235 112.782 375.583 82.2448 348.843 82.2448C339.039 82.2448 328.344 87.6337 313.191 100.208Z" fill="#E5F1A4"/>
<path d="M302.606 154.258C284.319 173.204 262.465 192.149 254.882 196.115C237.934 204.486 236.596 207.57 249.53 207.57C255.774 207.57 273.169 193.03 297.699 167.916C330.258 134.872 339.178 128.263 350.329 128.263C367.277 128.263 390.916 152.055 403.404 182.456C410.986 200.521 413.662 203.164 425.259 203.164H438.639L427.043 193.03C420.352 187.743 409.648 172.763 402.512 159.986C387.794 132.228 371.737 119.451 350.775 119.451C338.286 119.451 331.596 124.297 302.606 154.258Z" fill="#E5F1A4"/>
<path d="M314.839 177.366C300.573 191.824 291.212 203.654 294.332 203.654C297.899 203.654 309.489 193.577 320.634 181.748C331.779 169.48 344.261 159.841 348.274 159.841C352.732 159.841 358.527 166.851 362.539 177.366C369.672 194.453 379.925 203.654 391.962 203.654C395.082 203.654 393.745 200.149 387.95 195.768C382.6 191.824 375.021 179.995 371.009 169.48C359.864 142.754 348.274 144.069 314.839 177.366Z" fill="#E5F1A4"/>
<path d="M336.008 186.609C318.734 199.72 321.461 203.654 347.372 203.654H370.102L361.919 190.542C352.373 174.808 351.464 174.808 336.008 186.609Z" fill="#E5F1A4"/>
</g>
</svg>
