<svg width="43" height="43" viewBox="0 0 43 43" fill="none" xmlns="http://www.w3.org/2000/svg">
<g clip-path="url(#clip0_232_4266)">
<path d="M49.7851 18.1835C49.2518 17.7916 47.5428 16.6377 45.1516 16.7467C43.6324 16.8162 42.4926 17.3638 41.8957 17.7101C41.6039 16.6868 41.1043 14.4113 42.0963 12.5551C42.4013 11.9835 42.6824 11.7631 42.9586 11.666C43.7609 11.3844 44.8838 12.0231 45.8302 13.2897C46.8883 11.1591 48.4352 10.0207 49.4476 10.3347C50.0769 10.53 50.4396 11.2694 50.6234 11.6432C51.1302 12.6761 51.0101 13.6599 50.872 14.6881C50.7603 15.5149 50.4949 16.7623 49.7863 18.1846L49.7851 18.1835Z" fill="#8B392B"/>
<path d="M45.1504 40.3539C50.2817 40.3539 54.4414 35.069 54.4414 28.5496C54.4414 22.0303 50.2817 16.7454 45.1504 16.7454C40.0192 16.7454 35.8595 22.0303 35.8595 28.5496C35.8595 35.069 40.0192 40.3539 45.1504 40.3539Z" fill="#753F2E"/>
<path d="M48.7679 30.5318C47.5921 32.7762 46.4163 35.0206 45.2417 37.265C44.0575 35.023 42.8734 32.781 41.6904 30.539C42.8854 29.3635 44.0804 28.188 45.2766 27.0125C46.4403 28.1856 47.6053 29.3587 48.7691 30.5306L48.7679 30.5318Z" fill="#BE8D33"/>
<path d="M8.31704 13.3855C9.8387 13.9092 11.3592 14.434 12.8808 14.9577L14.788 12.1681C13.7792 12.041 12.3392 11.7247 10.8139 10.8919C10.5485 10.7469 9.2274 10.0123 7.87627 8.5816C7.14727 7.8087 6.63324 7.07176 6.28735 6.50977C6.15164 7.19159 6.00151 8.42462 6.36782 9.88653C6.82059 11.6935 7.81502 12.8655 8.31584 13.3843L8.31704 13.3855Z" fill="#9C7953"/>
<path d="M33.6881 7.7393C32.5351 8.85969 31.3822 9.98009 30.2292 11.1005L27.3132 9.38574C28.1719 8.84172 29.3393 7.9442 30.3649 6.54341C30.5439 6.29896 31.4254 5.07312 32.0379 3.205C32.3682 2.19604 32.5183 1.31051 32.5916 0.65625C33.0047 1.21585 33.6677 2.26794 33.9595 3.74662C34.321 5.574 33.9199 7.05748 33.6881 7.7393Z" fill="#9C7953"/>
<path d="M36.729 33.543C36.9296 36.9054 33.9691 39.0779 33.7109 39.2612C33.5116 39.6974 33.1777 40.3073 32.6252 40.9196C31.4266 42.2497 29.9938 42.7087 29.0306 43.0178C27.5246 43.5007 26.3248 43.4984 25.639 43.4912C24.0693 43.4744 23.3931 43.1413 23.1637 43.0178C22.5765 42.7027 22.1813 42.2941 21.9435 42.0029C21.5544 41.9154 21.0056 41.7632 20.3834 41.4948C19.6508 41.1785 18.1856 40.547 17.2632 39.1941C16.2256 37.6723 16.3733 35.9683 16.4153 35.4723C16.7312 31.8103 20.6645 28.6468 24.384 27.6571C30.3217 26.0765 35.2074 30.1699 35.7034 30.5988C36.0925 31.1788 36.6474 32.2009 36.7278 33.5442L36.729 33.543Z" fill="#F2CBDD"/>
<path d="M34.016 15.6454C35.2806 18.3092 36.7927 22.6278 36.2186 27.7876C36.1069 28.7929 35.9268 29.7312 35.7058 30.5975C34.6249 29.8007 32.5375 28.5137 29.6756 28.2369C28.6343 28.1363 27.7047 28.1902 26.9301 28.2992C26.5866 28.5569 26.0401 28.8984 25.3027 29.1117C24.1882 29.4328 23.237 29.2878 22.759 29.1788C21.5004 29.7492 19.7962 30.7186 18.1808 32.359C17.483 33.0684 16.927 33.7754 16.485 34.4225C16.0911 34.1205 15.5242 33.6508 14.9249 33.0013C11.3964 29.18 11.3459 24.0813 11.3303 22.6481C11.3207 21.7362 11.3808 20.9921 11.4324 20.5164C10.8655 20.6602 10.0501 20.8267 9.05923 20.8891C7.95071 20.9586 6.08676 21.0544 4.07389 20.1785C3.45537 19.9101 0.474496 18.6135 0.4793 16.6939C0.480501 16.193 0.68467 15.8107 0.796363 15.6094C1.49294 14.3464 3.03743 14.0097 4.31169 13.7509C5.0491 13.6011 7.38264 13.2033 10.3143 14.0888C11.4432 14.4303 12.3211 14.8581 12.8916 15.172C13.1883 14.5525 15.2792 10.3729 20.2165 9.04762C25.7603 7.56055 30.0575 10.9709 30.4706 11.3112C30.7457 10.8067 31.19 10.1117 31.8806 9.41909C32.9075 8.39096 33.9307 7.91884 35.0344 7.42275C36.1706 6.91108 37.3992 6.37306 39.0698 6.30595C40.0702 6.26641 41.4033 6.21249 41.9918 7.04649C42.3749 7.58931 42.2885 8.29031 42.232 8.74805C42.1756 9.19861 42.011 9.86485 41.2736 10.9074C40.26 12.3405 39.0998 13.1589 38.4933 13.5807C37.1566 14.5082 35.9328 14.9767 35.2374 15.238C34.745 15.4237 34.3222 15.5555 34.0172 15.6442L34.016 15.6454Z" fill="#BCBEC0"/>
<path d="M37.1698 10.3C37.4845 10.8093 36.9128 11.6768 36.627 12.1106C36.2366 12.7026 35.3239 13.8385 33.3566 14.5791C32.6493 13.6947 31.9419 12.8092 31.2345 11.9249C32.7381 10.5816 34.1385 10.1862 34.9312 10.0472C35.498 9.94771 36.8095 9.71764 37.1698 10.3012V10.3Z" fill="#F2CBDD"/>
<path d="M6.05434 17.1206C5.97388 17.7137 6.84941 18.2745 7.28657 18.5549C7.88346 18.9384 9.18054 19.6058 11.2787 19.486C11.5645 18.3907 11.8516 17.2955 12.1374 16.2015C10.217 15.5832 8.77581 15.7893 7.99516 15.9822C7.43669 16.1212 6.14442 16.4411 6.05314 17.1206H6.05434Z" fill="#F2CBDD"/>
<path d="M28.6379 33.9683C28.8901 34.0773 29.2288 34.2666 29.5171 34.6034C30.3241 35.544 30.2317 37.0407 29.642 38.0652C28.9766 39.2215 27.8032 39.5547 27.5955 39.6098C26.5038 39.8998 25.125 39.6721 24.2495 38.6967C24.1354 38.5697 23.183 37.472 23.5157 36.1192C23.6514 35.5668 23.9504 35.1797 24.1474 34.9664C24.1066 35.1318 23.8676 36.1791 24.5317 37.0958C25.1743 37.9825 26.314 38.2605 27.2328 38.0436C27.3841 38.0077 28.4061 37.7488 28.8865 36.7938C29.2577 36.0569 29.0979 35.3175 29.0187 34.9533C28.925 34.5183 28.7616 34.184 28.6367 33.9695L28.6379 33.9683Z" fill="#E6C342"/>
<path d="M81.1744 10.9913C81.1059 11.0417 81.0507 11.0764 81.0014 11.1184C79.2708 12.5743 77.539 14.029 75.8143 15.4921C75.6462 15.6347 75.5369 15.6419 75.3519 15.5172C74.1305 14.6952 72.8022 14.0913 71.3827 13.703C69.383 13.1566 67.3533 13.0272 65.3032 13.3795C65.1122 13.4119 65.0282 13.3591 64.9477 13.1902C63.9737 11.1507 62.9925 9.11602 62.0125 7.08014C61.9788 7.01064 61.9368 6.94354 61.8948 6.86804C59.6393 7.94889 57.4066 9.01896 55.1476 10.1022C55.1872 10.2017 55.2112 10.2712 55.2424 10.3359C56.214 12.3574 57.1833 14.3801 58.1645 16.3968C58.2545 16.5813 58.2365 16.6748 58.084 16.8066C56.1552 18.4866 54.7476 20.5021 53.8457 22.8268C53.1095 21.0629 52.0586 19.5135 50.5585 18.2793C50.34 18.0996 50.3147 17.9617 50.412 17.7065C51.0437 16.0457 51.3836 14.3345 51.2167 12.5491C51.147 11.8074 50.9849 11.0884 50.5513 10.4605C50.0541 9.74153 49.2879 9.54141 48.4916 9.91168C47.95 10.1633 47.4984 10.5384 47.1441 11.0057C46.6949 11.5989 46.295 12.228 45.8542 12.8678C45.7966 12.7912 45.7245 12.6953 45.6501 12.5994C45.2021 12.0243 44.7061 11.503 44.0299 11.1891C43.2457 10.8248 42.459 11.0081 41.9978 11.7355C41.7564 12.1165 41.5727 12.5551 41.4622 12.9925C41.1259 14.3166 41.2568 15.6479 41.5198 16.9684C41.5571 17.1529 41.5138 17.2308 41.3613 17.3159C39.6595 18.2613 38.3924 19.6369 37.4256 21.3038C37.1662 21.7507 36.9368 22.2073 36.7363 22.6722C36.663 21.9592 36.5489 21.2402 36.3856 20.5189C35.9916 18.7706 35.3587 17.1493 34.5408 15.6946C35.8151 15.3351 36.8107 14.8642 37.5037 14.4819C38.1943 14.1009 39.7135 13.1518 41.1763 11.4946C41.8645 10.7145 42.4074 9.83739 42.6476 8.80806C42.9598 7.46838 42.4146 6.46183 41.1283 5.98371C40.5686 5.77521 39.9826 5.73567 39.3929 5.75963C37.852 5.82194 36.4252 6.29766 35.0573 6.97349C34.7018 7.14964 34.3535 7.34256 33.9872 7.54148C35.0597 4.14315 33.0336 -0.102368 32.4115 0.00188297C31.8794 0.0905559 32.5688 3.3367 30.1656 6.4834C29.2492 7.68407 28.1839 8.47254 27.2508 9.04053C25.1046 8.16938 22.7795 7.91534 20.4747 8.433C18.17 8.95066 16.1776 10.1741 14.6127 11.8781C13.5258 11.7642 12.2239 11.5042 10.8812 10.8116C7.35863 8.995 6.5888 5.76682 6.06996 5.91421C5.46466 6.08676 5.45505 10.7888 7.88707 13.4023C7.47033 13.3795 7.0728 13.3532 6.67527 13.3472C5.1488 13.3208 3.65476 13.5005 2.23638 14.1021C1.69353 14.3321 1.1807 14.6185 0.763954 15.0463C-0.194443 16.0277 -0.254493 17.1709 0.60302 18.2481C1.26237 19.0749 2.12829 19.6369 3.08548 20.048C5.11997 20.9203 6.89985 21.1288 7.68651 21.1779C8.47676 21.2271 9.57808 21.2271 10.8836 21.0078C10.7695 22.671 10.8932 24.4061 11.2871 26.1556C12.093 29.7313 13.8945 32.7749 16.2412 34.9462C16.234 34.9714 16.228 34.9917 16.2232 35.0061C16.1007 35.4339 15.8293 36.4201 16.1103 37.604C16.3061 38.4248 16.736 39.1893 17.4002 39.8951C18.3009 40.8513 19.4287 41.4481 20.6669 41.8411C21.0824 41.9729 21.4175 42.1503 21.7214 42.4918C22.3459 43.1928 23.2214 43.46 24.1174 43.6314C25.316 43.8614 26.517 43.8267 27.7156 43.6158C29.5579 43.2899 31.2777 42.6739 32.7273 41.4493C33.3747 40.9029 33.8983 40.2654 34.0808 39.4026C34.1085 39.2708 34.1937 39.1282 34.2946 39.0395C35.1005 38.3278 35.7995 37.5321 36.3171 36.5855C36.6342 36.0055 36.8479 35.4064 36.9572 34.8072C37.7139 36.3961 38.7683 37.7873 40.2035 38.9173C42.8734 41.0191 46.3803 41.2911 49.3107 39.5872C51.3392 38.408 52.7263 36.6502 53.6787 34.5424C53.7256 34.4405 53.7676 34.3375 53.812 34.2344C55.6904 39.0144 59.9407 42.741 65.5254 43.3869C67.2933 43.5918 69.0359 43.4684 70.7509 43.0059C77.2111 41.2648 81.6476 35.4507 81.9574 28.7655C82.0739 26.2658 81.6043 23.8717 80.5499 21.5973C80.4802 21.4476 80.4862 21.3613 80.6231 21.2462C82.3586 19.7963 84.0868 18.338 85.8162 16.8809C85.8763 16.8306 85.9291 16.7719 86 16.7024C84.3835 14.7899 82.7813 12.8966 81.1744 10.9949V10.9913ZM56.2597 10.6438C56.2501 10.5923 56.3389 10.4917 56.4062 10.4593C58.066 9.65765 59.7306 8.86438 61.3915 8.06393C61.5453 7.98964 61.6329 8.0136 61.699 8.16938C61.7663 8.32755 61.8503 8.47973 61.9224 8.63671C61.9452 8.68584 61.9512 8.74336 61.9596 8.77571C61.7482 9.29457 61.5465 9.78826 61.3459 10.282C61.0733 10.9506 60.7959 11.618 60.5316 12.2891C60.4656 12.458 60.3935 12.494 60.2218 12.4233C58.9571 11.9044 57.6889 11.3976 56.4254 10.8775C56.3474 10.8451 56.2765 10.7313 56.2597 10.645V10.6438ZM57.2733 12.7888C57.2889 12.7732 57.3057 12.7576 57.3214 12.7432C57.403 12.7708 57.4859 12.7948 57.5664 12.8271C58.7097 13.2896 59.8555 13.7486 60.9952 14.2195C61.1742 14.2938 61.2354 14.2411 61.3015 14.0781C61.7446 12.9733 62.1974 11.8709 62.6466 10.7685C62.6802 10.6858 62.7187 10.6067 62.7907 10.4449C63.3095 11.5198 63.7971 12.5311 64.3004 13.5736C62.3151 14.0637 60.534 14.9181 58.8863 16.1428C58.335 14.9972 57.8042 13.8936 57.2733 12.7888ZM45.7365 15.2572C46.0716 13.8828 46.5989 12.5982 47.5873 11.5533C47.8263 11.3005 48.1193 11.0824 48.4244 10.9134C49.0825 10.548 49.7515 10.7397 50.1646 11.3676C50.5393 11.938 50.6558 12.5862 50.687 13.2441C50.7591 14.7396 50.4324 16.1631 49.8367 17.5304C49.8211 17.5675 49.7959 17.5999 49.7527 17.6682C48.4688 16.833 47.0865 16.3644 45.5264 16.2806C45.5996 15.9223 45.6585 15.5879 45.7377 15.2584L45.7365 15.2572ZM42.166 13.0308C42.3797 12.5048 42.7124 12.0866 43.3333 12.0243C43.7393 11.9847 44.1164 12.1129 44.4094 12.3754C44.7913 12.7181 45.1336 13.1075 45.4783 13.491C45.5348 13.5533 45.5492 13.6947 45.5252 13.7833C45.3126 14.5646 45.0904 15.3435 44.861 16.12C44.8406 16.1871 44.7601 16.2782 44.6989 16.2853C43.8077 16.3884 42.9406 16.5789 42.0711 16.9576C42.0122 16.6041 41.9498 16.2853 41.9066 15.9642C41.7732 14.9672 41.7817 13.9787 42.1672 13.0308H42.166ZM36.8359 23.5182C36.8263 23.5469 36.8167 23.5781 36.8071 23.6081C36.8059 23.5829 36.8047 23.5577 36.8035 23.5326C36.8143 23.5278 36.8251 23.523 36.8371 23.5182H36.8359ZM35.6986 30.5401C35.701 30.5593 35.7034 30.5785 35.7058 30.5988C35.6986 30.5916 35.6914 30.5833 35.6854 30.5761C35.6902 30.5641 35.6938 30.5521 35.6986 30.5413V30.5401ZM34.0556 8.10467C34.3487 8.18256 35.008 8.13103 35.5593 7.91894C36.1165 7.70444 36.2006 7.46718 36.7459 7.24071C37.3452 6.99266 37.7607 7.06696 38.4032 7.04898C39.2487 7.02502 40.081 6.85606 40.6359 6.67752C41.6435 7.09452 42.0867 8.00042 41.8177 9.15676C41.6555 9.85297 41.3109 10.4617 40.8917 11.0297C40.1087 12.0938 39.125 12.9433 38.0177 13.6539C36.8624 14.3957 35.6325 14.9636 34.2886 15.2584C34.1577 15.0415 34.0232 14.8282 33.8851 14.6197C33.9307 14.5958 33.9788 14.5706 34.0268 14.5442C34.1073 14.5011 36.0301 13.5605 37.195 11.8709C37.3932 11.5845 37.5493 11.2514 37.6454 10.9158C37.852 10.1945 37.4713 9.66124 36.7266 9.551C35.8811 9.42638 35.0837 9.62649 34.3006 9.91048C33.2353 10.2975 32.2601 10.8475 31.3774 11.5569C31.3534 11.5761 31.3294 11.5941 31.3053 11.612C31.1348 11.4575 30.9607 11.3077 30.7841 11.1615C30.8309 11.0896 30.9114 10.9937 31.0267 10.8356C31.847 9.71037 32.8871 8.83083 34.0568 8.10467H34.0556ZM33.6989 14.3465C33.0636 13.4298 32.349 12.597 31.5732 11.8601C32.0295 11.5629 32.4907 11.2514 32.9747 10.9794C33.6401 10.6055 34.3535 10.3371 35.1209 10.2592C35.3875 10.2316 35.6686 10.2376 35.9316 10.2879C36.5909 10.415 36.8383 10.8775 36.6222 11.5198C36.4132 12.1417 35.994 12.6186 35.5292 13.056C34.978 13.5748 34.3619 13.9966 33.6989 14.3453V14.3465ZM30.5631 6.98308C32.6336 4.28694 32.355 1.50693 32.7754 1.53688C33.2678 1.57163 34.4592 5.45048 32.9423 8.23528C32.809 8.33594 32.6913 8.42941 32.5892 8.51209C31.8578 9.10883 31.2021 9.70198 30.6304 10.385C30.4478 10.4713 30.2641 10.548 30.0779 10.6163C29.3873 10.1154 28.6631 9.68521 27.9125 9.32932C28.74 8.82124 29.7092 8.09389 30.5631 6.98188V6.98308ZM6.40384 7.4564C6.77135 7.2503 7.71173 9.88053 10.7406 11.4323C11.9897 12.0722 13.1775 12.3154 14.1431 12.4209C13.6182 13.062 13.1474 13.7618 12.7391 14.5083C12.5421 14.5263 12.3428 14.5359 12.141 14.5359C11.3327 14.162 10.4848 13.9068 9.56727 13.6803C9.43997 13.6491 9.29344 13.6144 9.13011 13.5808C6.56357 11.7115 5.97388 7.69726 6.40504 7.4552L6.40384 7.4564ZM10.9268 20.5033C10.0729 20.6986 9.21418 20.7741 8.35066 20.7585C8.16691 20.0995 7.9171 19.8886 7.70813 19.8275C7.33942 19.7208 7.15447 20.0947 6.54196 20.1402C5.92104 20.1858 5.72408 19.8299 5.0335 19.7328C4.76328 19.6945 4.37656 19.6933 3.88415 19.855C3.63434 19.7484 3.38813 19.6322 3.14553 19.5027C2.52342 19.1684 1.94934 18.7646 1.50497 18.205C0.669075 17.1541 0.790375 16.0026 1.83044 15.1542C2.41773 14.6749 3.1047 14.3957 3.8277 14.1955C5.05392 13.8576 6.30416 13.7869 7.56521 13.8876C9.1145 14.011 10.6049 14.3621 11.9777 15.1098C12.1494 15.2033 12.2647 15.256 12.3368 15.3016C12.2395 15.5089 12.147 15.7186 12.0593 15.9307C12.0293 15.9247 11.9993 15.9187 11.9705 15.9115C10.8668 15.6479 9.74982 15.5676 8.62208 15.673C7.7934 15.7509 6.98633 15.9115 6.27654 16.3848C5.65082 16.8018 5.53672 17.4477 6.03273 18.0109C6.26332 18.2721 6.54796 18.507 6.84941 18.6807C8.62809 19.71 10.7683 19.7388 10.8595 19.7436C10.9148 19.746 10.9688 19.7484 11.0205 19.7508C10.9844 19.9988 10.9544 20.2493 10.9292 20.5009L10.9268 20.5033ZM11.0685 19.4272C10.3191 19.3961 9.58168 19.2775 8.86108 19.0438C8.25338 18.8473 7.66969 18.5956 7.21452 18.1223C6.74372 17.6334 6.76774 17.1098 7.3106 16.7131C7.52677 16.555 7.77778 16.4303 8.03119 16.3405C8.7578 16.0828 9.51803 16.0205 10.2795 16.0744C10.8331 16.114 11.3844 16.1979 11.9236 16.271C11.5381 17.2679 11.2499 18.326 11.0697 19.426L11.0685 19.4272ZM14.3965 31.3897C15.063 31.1153 15.5915 29.7229 15.7308 28.7739C15.7632 28.5486 16.0382 26.4839 14.8216 25.4294C14.1695 24.8639 13.5786 25.0148 13.3084 24.4325C12.9733 23.7099 13.6879 23.0604 13.3792 22.4625C13.2255 22.1641 12.81 21.8717 11.7123 21.8358C11.8239 17.1409 13.9425 12.9721 17.3317 10.7601C17.9142 10.8991 18.4222 11.1315 18.5423 11.533C18.7057 12.0782 18.0415 12.5563 18.2181 12.8403C18.4499 13.2118 19.7445 12.6306 21.8595 12.0746C24.1822 11.4635 25.0626 11.5246 25.3028 10.8907C25.3808 10.6834 25.4733 10.1849 24.7623 9.26341C28.5418 9.94523 32.0031 12.6713 34.0532 16.6077C33.3242 17.0247 33.0684 17.4585 32.9807 17.8C32.845 18.3296 33.1044 18.6496 33.108 19.6801C33.1104 20.3308 33.0084 20.5572 32.9507 21.0977C32.9135 21.4476 32.6757 23.1767 33.5656 24.508C34.0905 25.294 35.1413 26.3078 35.8607 26.303C35.7154 27.566 35.4236 28.7786 34.9984 29.9086C34.5913 29.5683 34.0172 29.1789 33.2966 28.9344C31.608 28.3604 31.4182 28.3113 31.4182 28.3113C30.9883 28.1951 30.6304 28.007 30.3241 27.6882C28.5334 25.8285 27.1703 23.7051 26.3344 21.2594C26.1459 20.707 26.0149 20.1354 25.89 19.5459C26.4437 20.2624 27.1307 20.707 28.047 20.6962C28.967 20.6854 29.6888 20.29 30.1764 19.5063C30.855 18.4159 30.5079 17.0055 29.3994 16.3021C28.2932 15.5999 26.8436 15.9942 26.2996 16.7407C26.9709 16.8989 27.288 17.2092 27.3108 17.7329C27.3288 18.1475 27.0658 18.5357 26.6599 18.6915C26.2732 18.8401 25.8276 18.6663 25.4757 18.2014C25.2907 18.9084 25.3003 19.5962 25.3112 20.2888C25.1262 19.7052 24.9929 19.1157 25.0313 18.4962C25.083 17.661 25.3196 16.8929 25.8624 16.2374C26.6899 15.238 28.0182 14.9696 29.1748 15.5664C29.2889 15.6251 29.4006 15.6874 29.5243 15.7281C28.913 15.0188 28.1635 14.5598 27.2003 14.5802C26.0342 14.6054 25.2343 15.2369 24.7779 16.259C24.0885 17.8024 24.3239 19.2787 25.2475 20.6675C25.3184 20.7741 25.3892 20.8951 25.4108 21.0186C25.854 23.5493 27.0166 25.7254 28.6679 27.6654C28.7052 27.7098 28.7424 27.7529 28.7772 27.7996C28.7856 27.8116 28.7844 27.8296 28.7941 27.868C28.4998 27.8644 28.2104 27.8608 27.9209 27.856C27.2219 27.844 26.6058 28.0657 26.0546 28.4923C25.6907 28.7739 25.2463 28.8457 24.8079 28.9021C24.2891 28.9704 23.7775 28.9284 23.2563 28.8374C22.7855 28.7547 22.3411 28.9596 21.9315 29.2028C21.731 29.3215 21.5292 29.4353 21.2758 29.5815C21.3046 29.4533 21.3178 29.3778 21.3371 29.3035C21.8151 27.5456 22.0084 25.759 21.809 23.9448C21.737 23.2917 21.5616 22.6494 21.4451 22.0012C21.4151 21.8358 21.4055 21.6596 21.4271 21.4931C21.6529 19.7604 21.2001 18.2649 19.7673 17.2032C17.9887 15.8851 15.9314 16.924 15.4137 18.9348C15.4726 18.8688 15.5038 18.8413 15.5278 18.8077C16.5859 17.3207 18.2925 17.0882 19.7001 18.2553C20.6105 19.0102 21.05 20.0144 21.2122 21.2235C21.0092 20.8208 20.8543 20.4578 20.6537 20.1222C20.3018 19.5363 19.9427 18.9515 19.3398 18.5693C18.355 17.9438 16.9114 18.1319 16.2028 19.0102C16.8033 19.069 17.178 19.3757 17.2284 19.9773C17.2609 20.3583 17.0903 20.6723 16.7552 20.8688C16.3445 21.1072 15.9626 21.0054 15.6059 20.7298C15.481 21.3205 16.0791 22.4673 17.1408 22.8196C17.8265 23.0473 18.4919 23.0029 19.1356 22.6722C19.7806 22.3403 20.1781 21.8046 20.4459 21.1144C20.4735 21.2367 20.5048 21.3577 20.5276 21.4811C20.8086 22.9418 20.8651 24.4121 20.7269 25.892C20.5984 27.2616 20.3198 28.5989 19.8874 29.905C19.7253 30.3951 19.4755 30.8001 19.0576 31.1237C18.6312 31.452 17.5323 32.449 16.8429 33.6041C16.7468 33.7647 16.664 33.9205 16.5931 34.0667C15.7788 33.2842 15.0402 32.3867 14.3953 31.3933L14.3965 31.3897ZM32.6817 40.541C32.0007 41.2995 31.1564 41.8279 30.2292 42.227C28.4145 43.0083 26.5266 43.3462 24.5617 43.0226C23.9997 42.9304 23.4628 42.6835 22.914 42.505C22.8359 42.4798 22.7614 42.4463 22.7014 42.3696C24.5173 42.5397 26.296 42.4451 28.0614 42.0484C29.8257 41.6518 31.4711 40.9808 32.9987 40.0149C33.0132 40.0317 33.0288 40.0473 33.0432 40.0641C32.9231 40.2234 32.8126 40.3924 32.6805 40.5398L32.6817 40.541ZM35.5016 36.6262C34.799 37.8676 33.7818 38.8143 32.6084 39.6003C31.1852 40.553 29.6155 41.1689 27.9498 41.5679C26.1074 41.9514 24.2531 42.0544 22.3915 41.6901C20.9683 41.4109 19.6412 40.9053 18.5219 39.9514C16.712 38.4092 16.2893 36.1002 17.4146 34.0032C18.1112 32.7054 19.1128 31.6869 20.3342 30.8924C21.0224 30.4443 21.7682 30.0788 22.5044 29.7085C22.8179 29.5515 23.165 29.5084 23.5373 29.5623C24.683 29.7301 25.7591 29.488 26.7259 28.8565C27.0322 28.6552 27.3541 28.5402 27.6927 28.5234C29.5879 28.4287 31.4206 28.702 33.1357 29.5539C34.2082 30.0872 35.1209 30.8133 35.695 31.887C36.5561 33.4987 36.3759 35.084 35.5028 36.6262H35.5016ZM48.5517 38.867C46.4187 39.9299 44.2557 39.9502 42.1059 38.9353C40.4666 38.1624 39.2199 36.9354 38.2915 35.3944C36.938 33.1476 36.3315 30.7954 36.3856 28.3568C36.6306 27.3227 36.7795 26.2443 36.8215 25.1371C36.8395 25.0604 36.8588 24.9849 36.878 24.9082C37.3968 22.8939 38.36 21.1132 39.8733 19.6693C41.7925 17.8383 44.0539 16.9971 46.7165 17.5208C48.2514 17.8227 49.5569 18.5884 50.6642 19.6801C52.5978 21.5842 53.6127 23.9388 53.9946 26.587C54.0871 27.2269 54.0979 27.8787 54.1459 28.5246C54.1459 30.7846 53.6295 32.9115 52.539 34.8875C51.5974 36.5926 50.3207 37.9851 48.5505 38.8682L48.5517 38.867ZM80.3937 32.0164C79.5999 35.0133 77.9665 37.4997 75.5381 39.4314C72.9115 41.52 69.9138 42.5721 66.5342 42.4007C62.7355 42.2078 59.5888 40.6452 57.1256 37.7658C55.8117 36.2308 54.905 34.534 54.3693 32.6958C54.911 30.872 55.0755 28.9836 54.8881 27.0423C54.8005 26.1304 54.6371 25.2353 54.3861 24.3606C55.1115 21.7711 56.7293 19.2199 59.2394 17.2368C61.8299 15.1889 64.7928 14.1464 68.1123 14.3082C72.263 14.5095 75.6378 16.2818 78.1094 19.6106C80.8885 23.3528 81.5815 27.5348 80.3937 32.0176V32.0164ZM80.1067 20.6878C79.1063 18.8988 77.8392 17.3878 76.2275 16.1272C77.1126 15.3818 77.9701 14.6605 78.8793 13.896C78.8853 14.0482 78.8949 14.1404 78.8925 14.2315C78.8517 15.3962 78.8072 16.561 78.7652 17.7245C78.7532 18.0468 78.7544 18.048 79.0678 18.06C80.2845 18.1055 81.4999 18.1499 82.7165 18.1954C82.7885 18.1978 82.8594 18.2122 82.9663 18.2793C82.0259 19.0714 81.0843 19.8646 80.1079 20.6878H80.1067ZM84.7642 16.7443C84.7221 16.8162 84.6008 16.8857 84.5168 16.8833C83.1512 16.8414 81.7845 16.7886 80.419 16.7383C80.3865 16.7371 80.3529 16.7359 80.2556 16.7311C80.24 16.67 80.2016 16.5909 80.204 16.513C80.2352 15.5041 80.2736 14.4963 80.3097 13.4874C80.3133 13.3891 80.3349 13.2872 80.3181 13.1926C80.2388 12.7516 80.485 12.5 80.8069 12.2651C80.9666 12.1489 81.0495 12.168 81.1684 12.3106C81.8433 13.1183 82.5255 13.9199 83.2053 14.724C83.7049 15.3135 84.2069 15.9019 84.6993 16.4974C84.751 16.561 84.7966 16.6916 84.7654 16.7455L84.7642 16.7443Z" fill="black"/>
<path d="M30.4166 31.3143C30.3457 31.3358 30.2773 31.367 30.2124 31.4029C29.4149 31.8475 28.9297 32.5497 28.5959 33.3717C28.4301 33.7815 28.334 34.2081 28.4361 34.6527C28.507 34.9594 28.6643 35.096 29.0198 35.1476C29.0174 35.4387 29.0426 35.7191 29.009 35.9924C28.9021 36.8539 28.1935 37.7742 26.9913 37.9827C25.8528 38.1792 24.6146 37.4279 24.3467 36.3099C24.3347 36.2608 24.3335 36.1841 24.3623 36.1529C24.695 35.7922 24.5605 35.4292 24.3587 35.0829C23.9768 34.4226 23.3883 33.99 22.7134 33.6665C22.2306 33.4352 21.7286 33.2687 21.1821 33.3813C20.7221 33.476 20.5095 33.8366 20.6813 34.2716C20.7774 34.5137 20.9107 34.7521 21.0752 34.951C21.6109 35.5969 22.2978 36.0271 23.1085 36.2524C23.2442 36.2907 23.3211 36.3219 23.3211 36.51C23.3235 37.048 23.4388 37.5693 23.685 38.0558C24.456 39.58 26.3776 40.3445 28.1071 39.6399C29.9674 38.8814 30.7961 36.8192 29.9422 35.0146C29.8785 34.8791 29.9122 34.818 30.007 34.7222C30.2508 34.4765 30.5043 34.2345 30.7024 33.9553C31.1144 33.3753 31.4134 32.7426 31.3918 32.0069C31.3726 31.3838 31.0063 31.1285 30.4154 31.3143H30.4166ZM29.5423 38.0294C28.6115 39.5932 26.5374 40.0509 25.0349 39.0743C23.5445 38.1061 23.3499 36.1949 24.0561 35.102C23.8615 36.5484 24.3828 37.5957 25.7435 38.0905C26.8232 38.4836 27.8344 38.2188 28.5971 37.3644C29.4918 36.3614 29.487 35.247 28.7604 34.1099C29.8245 34.7989 30.4274 36.54 29.5411 38.0294H29.5423Z" fill="black"/>
<path d="M46.4019 27.6307C46.038 27.2653 45.6861 26.8878 45.327 26.5151C45.2369 26.5906 45.1901 26.6242 45.1504 26.6637C43.899 27.9111 42.65 29.1609 41.3961 30.406C41.288 30.5126 41.2796 30.5989 41.3469 30.7271C41.6892 31.3814 42.023 32.0392 42.3617 32.6959C43.0955 34.117 43.8293 35.5382 44.5643 36.9594C44.7889 37.3931 45.0147 37.8245 45.2573 38.2907C45.3138 38.1972 45.3498 38.1445 45.3786 38.0893C45.8542 37.1727 46.331 36.2548 46.8054 35.3369C47.5849 33.8295 48.3595 32.3172 49.1498 30.8146C49.2723 30.5821 49.2386 30.4491 49.0573 30.273C48.1637 29.4006 47.2834 28.5163 46.4019 27.6319V27.6307ZM45.2705 36.5627C44.2941 34.6742 43.3537 32.8553 42.4134 31.0351C42.4314 31.0183 42.4494 31.0015 42.4674 30.9859C43.3946 31.5815 44.3217 32.1782 45.2657 32.7834C46.1965 32.1854 47.1321 31.5851 48.0677 30.9835C48.0869 31.0015 48.1061 31.0195 48.1253 31.0375C47.1873 32.8529 46.2493 34.6695 45.2705 36.5615V36.5627ZM48.0472 30.4395C47.1777 31.0003 46.3094 31.5611 45.4351 32.1135C45.3618 32.159 45.2189 32.183 45.1552 32.1435C44.2185 31.5539 43.2889 30.9512 42.3029 30.3161C42.8205 29.808 43.3141 29.3275 43.8029 28.8434C44.2413 28.4108 44.6772 27.9758 45.112 27.5385C45.2081 27.4414 45.2837 27.3743 45.4135 27.5049C46.3058 28.4012 47.2029 29.2928 48.0977 30.1867C48.1313 30.2214 48.1577 30.2634 48.1998 30.3185C48.1445 30.3616 48.0989 30.406 48.0472 30.4395Z" fill="black"/>
<path d="M43.4619 25.4642C44.0275 24.8986 44.1188 23.9843 43.6768 23.3216C43.2841 22.7333 42.5095 22.4325 41.9594 22.6554C42.4326 23.0017 42.5731 23.3037 42.453 23.7195C42.3569 24.0502 42.0471 24.3042 41.7144 24.3222C41.3025 24.3438 41.025 24.1389 40.8197 23.6392C40.5218 24.3785 40.7896 25.2425 41.4322 25.6679C42.0771 26.0945 42.9166 26.0106 43.4631 25.4642H43.4619Z" fill="black"/>
<path d="M42.2632 22.0574C43.2961 22.0574 43.8762 22.6949 44.2208 23.6044C44.2112 22.7608 43.9302 22.0562 43.1832 21.6129C42.5851 21.257 41.957 21.2534 41.3577 21.6081C40.6202 22.0431 40.3188 22.7297 40.3164 23.5757C40.6671 22.6793 41.2484 22.0574 42.2632 22.0586V22.0574Z" fill="black"/>
<path d="M26.3693 18.7466C26.9284 18.7466 27.3817 18.2944 27.3817 17.7365C27.3817 17.1786 26.9284 16.7263 26.3693 16.7263C25.8101 16.7263 25.3568 17.1786 25.3568 17.7365C25.3568 18.2944 25.8101 18.7466 26.3693 18.7466Z" fill="white"/>
<path d="M16.3265 21.0318C16.8856 21.0318 17.3389 20.5795 17.3389 20.0216C17.3389 19.4637 16.8856 19.0115 16.3265 19.0115C15.7673 19.0115 15.314 19.4637 15.314 20.0216C15.314 20.5795 15.7673 21.0318 16.3265 21.0318Z" fill="white"/>
<path d="M41.7168 24.394C42.2196 24.394 42.6272 23.9873 42.6272 23.4857C42.6272 22.9841 42.2196 22.5774 41.7168 22.5774C41.214 22.5774 40.8064 22.9841 40.8064 23.4857C40.8064 23.9873 41.214 24.394 41.7168 24.394Z" fill="white"/>
</g>
<defs>
<clipPath id="clip0_232_4266">
<rect width="43" height="43" rx="21.5" fill="white"/>
</clipPath>
</defs>
</svg>
