<svg width="656" height="504" viewBox="0 0 656 504" fill="none" xmlns="http://www.w3.org/2000/svg">
<path d="M282 299.409C231.447 313.668 203.71 335.055 179.105 379.167C138.394 450.903 130.789 456.696 74.8678 454.914C39.973 453.577 33.2625 454.914 22.0783 462.934C9.9993 471.845 -2.9744 491.45 0.604548 495.015C1.49929 496.352 9.55193 489.222 18.4993 480.311L34.1572 463.379L62.3415 466.944C104.841 472.736 118.263 471.4 131.684 461.597C145.105 451.795 164.342 426.843 181.789 397.435C197 371.592 234.578 334.164 255.605 323.025C284.236 308.766 338.368 299.409 358.947 305.202C400.552 316.341 413.526 327.48 455.579 385.405C473.473 410.802 492.263 432.189 500.763 436.645C510.605 441.992 529.842 445.111 560.263 446.893C600.974 449.121 606.789 450.458 622 462.043C630.947 468.726 640.342 479.42 642.579 485.212C647.5 497.243 656 499.471 656 488.777C656 478.974 630.053 454.914 609.026 445.111C595.605 438.873 585.763 437.982 556.237 440.21C520 442.883 519.552 442.883 502.552 429.07C493.158 421.05 475.71 400.108 464.079 382.731C409.5 302.083 356.71 278.022 282 299.409Z" fill="#B9CF46"/>
<path d="M275.662 339.994C237.644 359.054 226.462 370.579 200.072 415.347C171.894 463.218 155.344 471.64 80.2014 476.959C44.4191 479.619 32.7898 481.835 26.5279 488.041C19.3714 496.019 19.3714 496.019 30.1061 492.916C36.368 491.587 63.6521 488.041 90.4888 486.268C163.843 480.505 183.076 470.754 204.992 428.202C223.778 390.968 245.695 368.806 281.03 351.519C356.62 314.729 381.667 324.924 464.861 427.315C500.196 470.311 526.139 483.608 568.183 479.176C603.965 475.63 619.173 478.732 622.751 491.143C624.987 497.792 627.224 499.122 630.354 496.019C633.933 492.473 633.038 487.597 627.671 480.062C619.62 467.208 614.252 466.321 562.368 468.094C531.506 469.424 527.48 468.094 510.484 456.126C500.644 449.034 475.149 422.439 454.574 397.617C433.999 372.352 409.399 345.757 400.006 338.221C383.904 325.81 379.431 324.481 346.332 323.594C311.445 322.708 307.866 323.151 275.662 339.994Z" fill="#B9CF46"/>
<path d="M324.722 345.623C287.586 355.554 268.347 371.805 235.686 420.557C219.131 444.933 202.129 467.503 197.208 470.663C180.653 481.948 145.755 492.782 115.778 495.942C88.038 499.101 86.6957 499.553 101.013 502.713C110.856 504.518 130.095 503.164 152.466 498.65C194.971 489.622 211.973 476.08 240.607 427.779C264.321 387.604 286.691 367.742 318.458 358.263C359.173 346.526 371.701 350.589 403.02 386.701C417.785 403.403 446.867 435.002 467.896 456.218L506.374 495.49L536.35 498.65C552.905 500.456 569.907 500.456 573.934 498.199C579.303 495.942 572.591 493.685 552.905 491.879C536.798 490.073 519.796 486.914 514.874 484.205C503.689 477.885 440.603 411.529 414.653 378.125C403.915 364.582 391.387 351.04 387.36 348.332C373.49 339.755 349.777 338.401 324.722 345.623Z" fill="#B9CF46"/>
<path d="M313.191 392.208C301.159 402.087 290.018 410.171 288.235 410.171C286.898 410.171 275.757 423.194 264.17 439.361C244.115 466.754 217.376 489.657 197.768 496.393C191.083 498.19 192.866 499.088 204.007 499.537C219.605 499.986 223.615 496.842 284.224 430.828C310.072 402.537 335.028 386.37 351.517 386.819C374.246 387.268 403.213 411.967 429.061 452.833C456.245 494.597 454.463 493.25 477.637 497.291C500.811 501.782 498.137 494.597 472.289 483.37C453.572 475.736 447.778 469.898 435.745 448.342C411.235 404.782 375.583 374.245 348.843 374.245C339.039 374.245 328.344 379.634 313.191 392.208Z" fill="#B9CF46"/>
<path d="M302.605 446.258C284.319 465.204 262.465 484.149 254.882 488.115C237.934 496.486 236.596 499.57 249.53 499.57C255.774 499.57 273.169 485.03 297.699 459.916C330.258 426.872 339.178 420.263 350.329 420.263C367.277 420.263 390.916 444.055 403.404 474.456C410.986 492.521 413.662 495.164 425.258 495.164H438.639L427.042 485.03C420.352 479.743 409.648 464.763 402.512 451.986C387.794 424.228 371.737 411.451 350.775 411.451C338.286 411.451 331.596 416.297 302.605 446.258Z" fill="#B9CF46"/>
<path d="M314.839 469.366C300.573 483.824 291.212 495.654 294.332 495.654C297.899 495.654 309.489 485.577 320.634 473.748C331.779 461.48 344.262 451.841 348.274 451.841C352.732 451.841 358.527 458.851 362.539 469.366C369.672 486.453 379.925 495.654 391.962 495.654C395.082 495.654 393.745 492.149 387.95 487.768C382.6 483.824 375.022 471.995 371.009 461.48C359.864 434.755 348.274 436.069 314.839 469.366Z" fill="#B9CF46"/>
<path d="M336.008 478.609C318.734 491.72 321.461 495.654 347.372 495.654H370.102L361.919 482.542C352.373 466.808 351.464 466.808 336.008 478.609Z" fill="#B9CF46"/>
<path fill-rule="evenodd" clip-rule="evenodd" d="M214.332 152.994C309.79 36.8683 219.498 -8.16136 196.305 52.1584C189.531 71.9364 189.801 91.0489 197.114 109.496C205.245 123.665 210.984 138.164 214.332 152.994Z" fill="#AAC923"/>
<path fill-rule="evenodd" clip-rule="evenodd" d="M193.975 194.827C206.752 164.113 201.529 133.714 178.306 103.63C176.343 98.9977 173.049 95.0519 168.842 92.2923C164.634 89.5327 159.703 88.0834 154.672 88.128C149.641 88.1725 144.736 89.7088 140.578 92.5424C136.42 95.376 133.197 99.3794 131.316 104.046C125.77 117.801 135.071 132.207 146.187 143.739C156.598 154.54 167.57 159.805 176.938 168.936C186.774 178.527 191.01 190.211 189.647 203.987C189.658 203.964 189.672 203.941 189.687 203.92C191.078 200.82 192.513 197.793 193.991 194.836" fill="#AAC923"/>
<path fill-rule="evenodd" clip-rule="evenodd" d="M276.958 124.213C248.866 123.358 221.79 145.889 200.845 182.045C198.577 186.68 196.275 191.259 193.938 195.783C192.53 198.522 191.108 201.237 189.671 203.928C189.657 203.95 189.643 203.972 189.631 203.995C192.525 202.232 195.509 200.621 198.57 199.167C207.71 194.053 219.046 187.823 229.177 186.949C247.207 183.752 313.199 179.385 296.928 140.904C293.97 133.899 286.979 128.017 276.958 124.213Z" fill="#86C149"/>
<path fill-rule="evenodd" clip-rule="evenodd" d="M200.911 308.049C219.447 307.06 228.138 297.269 226.985 278.675C222.639 261.835 210.889 238.053 191.737 207.33C190.963 206.164 190.261 205.043 189.647 203.973C178.042 242.795 172.284 264.569 172.373 269.297C169.793 296.498 179.303 309.42 200.903 308.062" fill="#86C149"/>
<path d="M201.405 308.422L200.937 308.45C189.995 309.134 182.102 306.188 177.26 299.612C172.447 293.073 170.684 282.956 171.97 269.262C171.933 266.844 173.35 260.194 176.221 249.31C179.092 238.427 183.436 223.28 189.254 203.87L189.522 202.979L190.968 205.379L192.08 207.097C201.669 222.479 209.403 236.116 215.284 248.008C221.165 259.899 225.198 270.081 227.384 278.554C227.412 278.737 227.425 278.922 227.424 279.107C227.913 288.282 225.985 295.316 221.641 300.209C217.298 305.102 210.554 307.836 201.409 308.411M200.891 307.637L201.362 307.611C210.278 307.056 216.835 304.414 221.033 299.686C225.231 294.958 227.09 288.12 226.61 279.172L226.586 278.738C224.421 270.352 220.411 260.235 214.556 248.385C208.685 236.505 200.967 222.891 191.402 207.543L190.283 205.82L189.764 204.979C184.087 223.978 179.836 238.827 177.01 249.527C174.14 260.374 172.73 266.958 172.779 269.281L172.777 269.325C171.502 282.818 173.209 292.756 177.9 299.141C182.574 305.48 190.236 308.316 200.888 307.649L200.891 307.637Z" fill="#86C149"/>
<path fill-rule="evenodd" clip-rule="evenodd" d="M123.004 266.407C145.517 261.289 167.73 240.484 189.642 203.994C173.121 212.084 151.799 216.167 125.677 216.241C102.478 216.206 92.7569 227.524 96.5154 250.197C101.309 263.788 110.135 269.197 122.993 266.425" fill="#AAC923"/>
<path fill-rule="evenodd" clip-rule="evenodd" d="M128.324 201.246C144.304 203.515 151.661 198.927 166.521 199.855C173.602 200.296 181.308 201.672 189.639 203.982C175.921 173.044 153.839 157.306 123.393 156.768C91.2735 156.204 64.8823 192.245 128.324 201.246Z" fill="#86C149"/>
<path fill-rule="evenodd" clip-rule="evenodd" d="M191.737 207.33C204.417 226.524 236.286 259.207 257.584 258.109C291.088 248.302 282.42 214.313 256.551 199.992C238.188 189.841 218.867 189.558 198.587 199.146C195.261 201.008 192.233 202.726 189.648 203.973L191.737 207.33Z" fill="#AAC923"/>
<path d="M226.801 54.0975C229.231 62.1273 229.743 74.0739 228.336 89.9372C226.961 105.513 223.745 124.986 218.688 148.355C217.061 155.77 213.735 164.79 209.205 174.792C212.1 172.4 215.177 170.099 218.436 167.887C229.542 160.357 242.776 153.868 258.136 148.42L260.336 154.556C245.521 159.813 232.78 166.053 222.114 173.276C213.51 179.112 206.269 185.589 200.391 192.707C198.966 195.417 197.484 198.167 195.952 200.945C210.622 201.732 222.854 204.481 232.646 209.192C244.072 214.693 252.152 222.834 256.887 233.616L250.921 236.222C246.832 226.92 239.797 219.86 229.814 215.042C220.509 210.566 208.628 208.01 194.17 207.376C199.161 222.95 202.391 237.116 203.859 249.876C205.476 263.99 204.933 276.403 202.231 287.114L195.914 285.5C198.426 275.554 198.919 263.918 197.392 250.594C196.094 239.258 193.337 226.72 189.121 212.981C187.388 215.952 185.614 218.94 183.806 221.934C161.902 258.211 134.997 295.546 118.672 314.228L113.773 309.951C129.9 291.494 156.517 254.544 178.229 218.589C178.579 218.009 178.928 217.43 179.275 216.851C172.163 222.405 165.456 226.972 159.153 230.552C149.035 236.293 139.913 239.521 131.787 240.236L131.218 233.749C138.431 233.117 146.668 230.171 155.93 224.91C164.775 219.891 174.51 212.791 185.136 203.61C177.925 195.02 169.933 188.818 161.16 185.004C151.621 180.859 141.083 179.502 129.548 180.934L128.75 174.477C141.465 172.902 153.134 174.422 163.758 179.035C172.711 182.926 180.871 188.987 188.24 197.217C191.184 185.092 190.105 173.154 185.003 161.403C178.984 147.528 167.389 133.838 150.218 120.331L154.238 115.218C172.279 129.403 184.523 143.928 190.972 158.794C194.925 167.916 196.709 177.134 196.325 186.447C204.216 171.127 210.052 157.328 212.33 146.966C217.326 123.847 220.499 104.641 221.85 89.3468C223.177 74.3378 222.749 63.2127 220.566 55.9713L226.801 54.0975Z" fill="#639E44"/>
<path fill-rule="evenodd" clip-rule="evenodd" d="M358.858 58.7422C348.004 65.8816 345.687 72.5262 351.906 78.6759C357.436 84.4671 359.613 90.2363 358.438 95.9835C352.138 108.554 347.672 95.1377 343.34 91.0367C339.631 87.5238 334.936 86.9948 329.256 89.4497C321.153 94.651 320.728 101.31 327.982 109.428C336.79 118.229 341.268 125.348 341.418 130.783C340.895 138.492 338.628 139.974 334.616 135.228C322.167 116.59 301.545 137.793 322.24 151.68C331.171 158.204 333.397 165.289 328.916 172.935C324.553 180.378 324.76 186.722 334.656 190.555C343.406 193.945 350.184 191.126 349.079 181.321C348.79 178.569 348.681 175.8 348.755 173.034C349.011 164.396 356.246 159.759 370.459 159.123C377.718 159.683 382.77 156.971 385.617 150.987C388.242 141.746 385.952 137.062 378.746 136.936C372.859 135.868 369.676 134.019 369.196 131.389C370.289 126.694 376.277 125.011 387.159 126.342C393.793 128.103 397.686 124.942 398.837 116.858C400.051 108.277 395.517 103.955 385.235 103.892C382.36 104.342 380.467 104.123 379.556 103.237C375.955 100.301 377.23 97.5065 381.222 92.7947C387.235 84.7642 388.97 76.9733 386.427 69.4218C382.067 56.0144 372.878 52.4546 358.858 58.7422Z" fill="#238947"/>
<path d="M373.247 80.1755C373.017 86.3497 371.213 93.0546 367.834 100.29C365.967 104.29 363.615 108.458 360.777 112.795C362.871 111.789 364.953 111.141 367.023 110.85C370.877 110.306 374.649 111.001 378.339 112.933L378.416 112.972L378.472 113.012C380.003 114.06 381.53 114.614 383.053 114.674C384.575 114.734 386.126 114.304 387.707 113.381L389.009 115.606C386.989 116.784 384.97 117.333 382.952 117.254C380.961 117.177 379.004 116.487 377.079 115.183C373.891 113.532 370.656 112.936 367.374 113.394C364.064 113.861 360.67 115.4 357.191 118.01C355.938 119.75 354.612 121.515 353.213 123.305C349.03 131.392 346.833 138.559 345.671 145.063C352.519 138.035 361.27 141.395 368.968 144.352L368.977 144.356C372.272 145.62 375.363 146.806 377.827 146.911L377.715 149.486C374.839 149.362 371.546 148.098 368.033 146.748C360.126 143.712 350.976 140.199 344.926 150.29C344.388 155.28 344.358 159.882 344.329 164.231L344.329 164.232C344.251 175.869 344.184 185.758 334.955 196.528L332.996 194.849C341.614 184.795 341.678 175.331 341.752 164.207C341.76 163.094 341.767 161.965 341.783 160.817C338.57 152.765 333.529 150.072 329.464 147.9L329.462 147.9C325.102 145.571 321.716 143.762 321.898 137.635L324.475 137.714C324.341 142.238 327.108 143.716 330.67 145.619C334.263 147.537 338.55 149.828 341.944 155.374C342.31 148.045 343.437 139.911 347.13 130.465C348.451 123.244 348.262 117.348 346.56 112.776C344.898 108.319 341.764 105.1 337.158 103.119L338.173 100.753C343.455 103.026 347.056 106.732 348.977 111.872C350.143 115.002 350.67 118.654 350.559 122.828C350.693 122.563 350.83 122.296 350.969 122.028L351.021 121.929L351.102 121.825C357.432 113.745 362.232 106.203 365.504 99.1994C368.739 92.2702 370.466 85.8958 370.684 80.0765L373.247 80.1755Z" fill="#C3D446"/>
<path fill-rule="evenodd" clip-rule="evenodd" d="M366.931 277.963C367.059 269.202 370.192 263.337 376.328 260.367C402.35 250.388 411.814 238.592 404.721 224.978C379.07 191.177 338.826 229.975 354.534 266.366C356.755 270.147 360.887 274.013 366.931 277.963Z" fill="#A9C822"/>
<path d="M386.698 223.382C379.661 228.918 374.083 234.388 369.964 239.794C370.15 236.91 370.546 234.202 371.151 231.671C371.979 228.208 373.197 225.079 374.806 222.283L373.052 221.275C371.345 224.243 370.055 227.551 369.183 231.2C368.337 234.742 367.884 238.607 367.823 242.794C365.905 245.678 364.407 248.543 363.327 251.389C362.759 252.887 362.307 254.378 361.971 255.864C361.616 254.623 361.364 253.278 361.214 251.83C360.914 248.934 361.021 245.628 361.536 241.912L359.529 241.634C358.992 245.512 358.882 248.979 359.198 252.036C359.508 255.021 360.224 257.618 361.345 259.829C360.786 266.163 362.359 272.383 366.066 278.489L367.795 277.438C362.923 269.415 361.986 261.188 364.983 252.757C370.662 251.191 375.098 249.844 378.293 248.717C381.722 247.508 383.84 246.497 384.646 245.686L383.21 244.258C382.623 244.85 380.758 245.7 377.615 246.807C374.712 247.831 370.813 249.028 365.921 250.4C368.121 245.398 371.685 240.315 376.615 235.149C380.588 235.641 383.966 235.83 386.748 235.715C389.738 235.591 392.078 235.113 393.768 234.283L392.88 232.466C391.445 233.171 389.374 233.579 386.669 233.691C384.353 233.786 381.601 233.663 378.412 233.322C381.205 230.563 384.385 227.781 387.951 224.976L386.698 223.382Z" fill="#D7E386"/>
<path fill-rule="evenodd" clip-rule="evenodd" d="M571.796 345.985C543.455 365.578 446.12 304.012 451.688 255.611C454.551 243.852 449.264 233.763 435.827 225.346C423.901 215.025 415.821 202.936 411.589 189.079C399.785 155.812 409.122 140.102 439.599 141.95C476.659 148.539 496.23 166.707 498.312 196.455C504.884 219.335 518.185 233.708 538.213 239.575C569.377 251.261 584.063 285.389 583.068 326.381C582.768 330.283 581.6 334.068 579.651 337.461C577.701 340.854 575.019 343.769 571.8 345.994" fill="#639E44"/>
<path d="M510 289.082C506.632 284.953 503.207 280.58 499.727 275.964C493.111 275.291 486.888 273.098 481.06 269.387C474.994 265.522 469.384 260.029 464.229 252.909L468.012 250.178C472.828 256.831 478.01 261.924 483.559 265.457C487.293 267.875 491.413 269.605 495.724 270.581C478.396 246.961 459.709 217.448 439.666 182.042L443.719 179.753C455.645 200.816 467.083 219.777 478.032 236.637C476.962 231.677 476.101 226.671 475.451 221.635C474.265 212.353 473.894 202.985 474.341 193.638L478.991 193.86C478.559 202.938 478.921 212.035 480.074 221.05C481.267 230.318 483.198 239.476 485.849 248.437C495.5 262.711 504.755 275.28 513.614 286.143C515.859 288.895 518.077 291.536 520.269 294.067C518.547 284.046 522.325 273.777 531.605 263.259L535.096 266.333C523.519 279.467 521.555 291.998 529.204 303.926C543.874 319.335 557.27 329.443 569.394 334.249L569.439 334.26C575.792 336.911 580.919 339.444 584.821 341.86C588.926 344.4 591.751 346.866 593.298 349.256L589.376 351.788C588.204 349.976 585.871 347.988 582.377 345.826C578.679 343.536 573.769 341.111 567.645 338.551C550.588 331.777 531.373 315.287 510 289.082Z" fill="#84C046"/>
</svg>
