<svg width="133" height="198" viewBox="0 0 133 198" fill="none" xmlns="http://www.w3.org/2000/svg">
<path fill-rule="evenodd" clip-rule="evenodd" d="M65.1197 71.1059C80.0351 -29.0394 12.2806 -23.7739 19.7778 19.1032C22.7157 32.8745 29.492 43.8213 40.1066 51.9436C49.7114 57.3117 58.0491 63.6991 65.1197 71.1059Z" fill="#AAC923"/>
<path fill-rule="evenodd" clip-rule="evenodd" d="M67.8517 102.322C64.5925 80.1544 51.0454 64.4039 27.2103 55.0705C24.4715 53.0747 21.202 51.9363 17.8158 51.7996C14.4297 51.6629 11.0791 52.5339 8.18824 54.3024C5.29738 56.071 2.99624 58.6574 1.57612 61.7345C0.156004 64.8115 -0.319228 68.2406 0.210584 71.5879C1.772 81.4546 12.1349 86.554 22.5504 89.3649C32.3057 91.9977 40.4672 91.2382 49.0418 93.2675C58.0458 95.4007 64.5399 100.682 68.5241 109.113C68.5229 109.095 68.5229 109.077 68.5241 109.06C68.254 106.788 68.034 104.542 67.8639 102.322" fill="#AAC923"/>
<path fill-rule="evenodd" clip-rule="evenodd" d="M91.3256 32.7874C74.8022 42.0243 66.9667 64.4188 67.392 92.5587C67.6877 96.0217 67.9442 99.4645 68.1616 102.887C68.2966 104.957 68.4154 107.018 68.518 109.07C68.5169 109.088 68.5169 109.105 68.518 109.123C69.5793 107.102 70.7447 105.138 72.0095 103.237C75.5171 97.1173 79.9077 89.5918 85.4567 85.5779C94.7644 77.4852 131.372 52.1036 108.643 35.5113C104.508 32.4897 98.432 31.5136 91.3256 32.7874Z" fill="#86C149"/>
<path fill-rule="evenodd" clip-rule="evenodd" d="M111.077 165.321C121.442 158.329 123.071 149.663 115.964 139.322C107.62 131.1 92.5953 121.432 70.8894 110.319C70.0388 109.914 69.2449 109.509 68.5199 109.104C75.2638 135.549 79.4802 150.122 81.1692 152.822C89.1012 169.428 99.0705 173.598 111.077 165.332" fill="#86C149"/>
<path d="M111.492 165.366L111.231 165.544C105.147 169.73 99.568 170.762 94.4929 168.641C89.4475 166.53 84.9246 161.297 80.9242 152.941C80.0655 151.558 78.5804 147.225 76.4688 139.944C74.3572 132.663 71.6199 122.408 68.2567 109.181L68.1028 108.574L69.7695 109.459L71.0069 110.066C81.874 115.63 91.0657 120.828 98.5818 125.66C106.098 130.492 111.955 134.977 116.152 139.114C116.232 139.21 116.303 139.312 116.367 139.419C119.827 144.55 121.15 149.281 120.336 153.612C119.522 157.943 116.574 161.858 111.49 165.358M110.923 165.091L111.187 164.912C116.144 161.503 119.017 157.706 119.804 153.521C120.591 149.335 119.296 144.741 115.919 139.739L115.755 139.496C111.6 135.403 105.779 130.947 98.2922 126.13C90.7855 121.302 81.6114 116.111 70.7699 110.558L69.5265 109.951L68.9351 109.645C72.2375 122.586 74.9256 132.636 76.9994 139.796C79.0988 147.056 80.5651 151.348 81.3981 152.672L81.4123 152.698C85.3492 160.934 89.7783 166.084 94.6995 168.147C99.5951 170.189 105.004 169.173 110.925 165.099L110.923 165.091Z" fill="#86C149"/>
<path fill-rule="evenodd" clip-rule="evenodd" d="M51.6502 168.254C62.8819 157.499 68.5065 137.787 68.5241 109.119C61.7829 119.514 50.8807 129.258 35.8174 138.35C22.4039 146.366 20.7095 156.271 30.7342 168.066C38.2111 174.256 45.1832 174.323 51.6502 168.268" fill="#AAC923"/>
<path fill-rule="evenodd" clip-rule="evenodd" d="M32.1518 128.771C42.1684 124.546 44.8295 119.348 53.7342 114.736C57.9776 112.538 62.9056 110.664 68.518 109.112C49.8769 95.9933 31.6698 94.5514 13.8968 104.787C-4.85235 115.587 -7.61267 145.548 32.1518 128.771Z" fill="#86C149"/>
<path fill-rule="evenodd" clip-rule="evenodd" d="M70.8894 110.32C84.8631 117.015 114.593 124.854 126.515 116.843C142.471 99.5719 125.691 82.9411 105.787 83.6296C91.6637 84.1265 80.405 90.6563 72.0113 103.219C70.7354 105.447 69.5811 107.488 68.5199 109.104L70.8894 110.32Z" fill="#AAC923"/>
<path d="M38.0652 9.65982C42.2506 13.4564 46.6844 20.18 51.3666 29.8306C55.9678 39.3044 60.8552 51.6668 66.0289 66.9178C67.6575 71.7645 68.8609 78.1269 69.7086 85.4735C70.5526 83.0892 71.5328 80.6937 72.6492 78.2872C76.4566 70.0906 81.853 61.7583 88.8385 53.2904L92.2348 56.073C85.4977 64.2412 80.2997 72.2589 76.6409 80.1261C73.6922 86.4779 71.753 92.7274 70.8233 98.8746C70.9388 100.934 71.0349 103.036 71.1126 105.171C79.8596 100.544 87.8771 97.8955 95.1652 97.2247C103.671 96.4443 111.159 98.348 117.629 102.936L115.085 106.508C109.501 102.551 102.991 100.91 95.5561 101.585C88.6304 102.222 80.882 104.862 72.3111 109.503C80.5889 116.771 87.3617 123.835 92.6297 130.697C98.4528 138.29 102.439 145.648 104.588 152.771L100.38 154.027C98.3859 147.411 94.64 140.52 89.1423 133.352C84.4658 127.254 78.5303 120.966 71.3357 114.49C71.3643 116.806 71.3744 119.147 71.3673 121.503C71.2802 150.046 68.6718 180.932 65.713 197.378L61.4014 196.604C64.3237 180.356 66.8997 149.792 66.9868 121.503C66.9882 121.046 66.9889 120.591 66.989 120.136C64.8048 125.808 62.5123 130.77 60.1113 135.021C56.2554 141.841 52.1044 146.866 47.6585 150.094L45.0825 146.544C49.0302 143.68 52.768 139.125 56.2959 132.878C59.6662 126.915 62.8302 119.441 65.7879 110.457C58.6469 107.993 51.8821 107.179 45.4936 108.015C38.5472 108.925 31.9903 111.791 25.823 116.614L23.1254 113.161C29.9246 107.847 37.1917 104.682 44.9265 103.667C51.4457 102.813 58.2591 103.487 65.3666 105.689C62.8669 97.6656 58.1085 91.1433 51.0912 86.1227C42.8082 80.1929 31.3679 76.3012 16.7704 74.4475L17.3212 70.1014C32.6559 72.0456 44.7604 76.1945 53.6348 82.5482C59.0782 86.4479 63.302 91.1544 66.3063 96.6675C65.5571 85.0845 64.1489 75.0919 61.8753 68.3172C56.7529 53.2323 51.933 41.0387 47.4154 31.7363C42.983 22.6068 38.882 16.3287 35.1125 12.9021L38.0652 9.65982Z" fill="#639E44"/>
</svg>
