<svg width="121" height="224" viewBox="0 0 121 224" fill="none" xmlns="http://www.w3.org/2000/svg">
<path fill-rule="evenodd" clip-rule="evenodd" d="M59.6041 79.3725C63.4172 78.7282 66.2917 82.8591 68.2275 91.7652C68.6658 89.2407 69.0434 86.7468 69.3605 84.2836C69.8207 80.7115 70.153 77.2001 70.3576 73.7492C69.744 49.8462 64.7533 39.2797 55.3855 42.0497C51.5987 42.675 44.2573 40.7166 33.3613 36.1744C36.704 47.8988 37.3695 56.07 35.3577 60.6881C32.3613 70.8448 40.447 77.0729 59.615 79.3725" fill="#6CB045"/>
<path fill-rule="evenodd" clip-rule="evenodd" d="M5.63709 139.975C15.8953 160.211 -23.0163 202.094 23.1863 200.094C25.5049 196.257 27.7365 192.462 29.8812 188.709C36.3899 171.567 34.3847 160.228 23.8657 154.691C20.6997 153.247 14.6235 148.342 5.63709 139.975Z" fill="#6CB045"/>
<path fill-rule="evenodd" clip-rule="evenodd" d="M29.8812 188.709C56.6609 209.173 50.3276 172.1 85.8862 158.905C75.4432 155.982 67.9425 153.052 63.3843 150.115C57.875 144.486 51.7571 147.773 45.0308 159.977C40.5661 169.273 35.5191 178.846 29.89 188.696" fill="#AAC635"/>
<path fill-rule="evenodd" clip-rule="evenodd" d="M35.9909 131.488C46.9366 130.868 52.2034 135.392 51.7914 145.059C52.874 142.517 53.9098 139.996 54.8989 137.497C55.118 136.947 55.3372 136.401 55.541 135.857C58.2978 118.619 55.6045 94.7895 38.3599 92.1268C31.2011 91.018 22.0817 88.023 11.0017 83.1418C21.9108 93.5747 26.0863 101.231 23.5281 106.111C18.9158 123.245 23.0701 131.704 35.9909 131.488Z" fill="#AAC635"/>
<path fill-rule="evenodd" clip-rule="evenodd" d="M120.143 95.8282C113.453 98.0518 104.224 95.5389 92.4563 88.2896C83.4889 85.2654 73.6397 93.9399 62.9089 114.313C62.2339 116.613 61.5165 118.931 60.7568 121.269C60.3828 122.416 59.9986 123.565 59.6041 124.716C63.2054 121.427 67.3597 120.652 72.067 122.391C84.9002 126.41 92.7441 124.948 95.5989 118.006C98.157 111.56 106.624 104.062 121 95.5126C120.722 95.6266 120.435 95.7318 120.145 95.8282" fill="#6CB045"/>
<path fill-rule="evenodd" clip-rule="evenodd" d="M69.3605 84.2836C91.4928 82.5304 101.993 74.9333 100.861 61.4924C100.568 54.4388 104.582 47.5437 112.9 40.8072C113.339 40.4478 113.797 40.0927 114.261 39.7355C90.6045 40.4105 72.5688 42.2316 70.5395 69.6928C70.5 71.034 70.4365 72.3795 70.3576 73.7382C70.153 77.1876 69.8207 80.6991 69.3605 84.2726" fill="#AAC635"/>
<path fill-rule="evenodd" clip-rule="evenodd" d="M70.307 0C50.3034 14.7003 49.5473 28.4905 68.0389 41.3704C81.8728 35.6419 86.8504 28.2552 82.9715 19.2104C77.4125 15.2657 73.191 8.86227 70.307 0Z" fill="#F8AC00"/>
<path d="M7.32458 222.067C12.3904 214.427 17.1441 206.936 21.5856 199.594C22.0177 191.824 21.6974 184.512 20.6246 177.657C19.6048 170.951 17.7228 164.405 15.0254 158.182L18.008 156.882C20.8168 163.362 22.7762 170.178 23.8373 177.16C24.6692 182.468 25.065 188.025 25.0247 193.833C36.796 173.843 46.203 154.982 53.2457 137.249C52.9127 132.296 51.8666 127.417 50.1392 122.761C48.3314 117.968 45.8331 113.464 42.7233 109.393C41.4829 107.756 40.168 106.183 38.7786 104.675C37.3893 103.167 35.8604 101.667 34.1919 100.174L36.3505 97.7545C38.0496 99.2768 39.6508 100.85 41.1542 102.475C42.6575 104.099 44.0455 105.753 45.318 107.434C48.618 111.756 51.2684 116.537 53.1853 121.626C54.2959 124.613 55.1421 127.687 55.7165 130.813C56.4353 128.873 57.1248 126.946 57.7852 125.034C62.7451 110.664 66.0557 97.0829 67.7171 84.2904C66.7001 77.2246 64.2954 70.429 60.6407 64.2952C56.9035 57.9809 51.7901 52.1056 45.3004 46.6693L47.3911 44.1689C54.1568 49.8418 59.5047 55.9984 63.4348 62.6385C65.6174 66.305 67.3791 70.1942 68.6939 74.2318C69.2807 64.952 68.9397 56.1159 67.6708 47.7234C66.1544 40.8188 65.1222 34.525 64.5743 28.8418C64.025 23.1279 63.9717 18.0569 64.4143 13.6287L67.6511 13.9464C67.2274 18.1701 67.2808 23.033 67.8111 28.535C68.3414 34.037 69.3641 40.2228 70.8792 47.0923L70.8989 47.1953C72.3296 56.6141 72.6197 66.568 71.7693 77.0571C75.0834 71.6815 78.3646 66.8665 81.613 62.6122C86.142 56.685 90.6199 51.8185 95.0466 48.0127L97.1636 50.4847C92.9121 54.1371 88.5913 58.8378 84.2011 64.5867C79.8345 70.3041 75.4174 77.0349 70.9498 84.7793C69.7975 93.6054 67.8761 102.792 65.1856 112.34C67.9889 108.989 70.9474 106.178 74.0612 103.908C79.4784 99.9635 85.345 97.6661 91.6608 97.0159C93.544 96.8212 95.4392 96.7699 97.3301 96.8625C99.2987 96.9632 101.258 97.199 103.194 97.5682L102.596 100.768C100.808 100.424 98.9976 100.204 97.1789 100.11C95.452 100.023 93.7209 100.066 92.0005 100.24C86.2632 100.824 80.9234 102.918 75.9809 106.523C71.0287 110.129 66.4576 115.262 62.2676 121.92C61.8159 123.302 61.3488 124.691 60.8664 126.088C55.0126 143.033 46.9039 161.039 36.5401 180.108C39.3427 177.57 42.0868 175.238 44.7723 173.112C49.931 169.032 54.8559 165.725 59.5471 163.191L61.0811 166.058C56.5404 168.511 51.7732 171.713 46.7796 175.663C41.8356 179.574 36.6395 184.251 31.1914 189.693C24.8705 200.74 17.8199 212.13 10.0398 223.864L7.32458 222.067Z" fill="#005A70"/>
</svg>
